<svg width="174" height="47" viewBox="0 0 174 47" fill="none" xmlns="http://www.w3.org/2000/svg">
<path d="M4.1 45C3.76867 45 3.55567 44.9053 3.461 44.716C3.41367 44.5267 3.39 44.3137 3.39 44.077C3.39 43.0357 3.532 41.8523 3.816 40.527C4.14733 39.2017 4.384 37.9947 4.526 36.906C4.81 34.9653 5.04667 32.8827 5.236 30.658C5.47267 28.4333 5.591 26.185 5.591 23.913C5.591 20.4103 5.236 16.955 4.526 13.547C3.816 10.139 2.51433 7.13333 0.621 4.53C0.479 4.29333 0.621 3.962 1.047 3.536C1.473 3.11 1.97 2.73133 2.538 2.4C3.15333 2.06866 3.603 1.92666 3.887 1.974C4.69167 2.02133 5.378 2.70767 5.946 4.033C6.56133 5.35833 7.05833 7.015 7.437 9.003C7.863 10.9437 8.19433 12.9553 8.431 15.038C8.66767 17.1207 8.83333 18.9903 8.928 20.647C9.02267 22.2563 9.07 23.3923 9.07 24.055C9.07 25.8537 9.02267 27.6997 8.928 29.593C8.88067 31.4863 8.66767 33.3323 8.289 35.131C8.76233 34.421 9.59067 33.285 10.774 31.723C12.0047 30.1137 13.4483 28.244 15.105 26.114C16.809 23.9367 18.6077 21.6883 20.501 19.369C22.4417 17.0023 24.3823 14.7067 26.323 12.482C28.2637 10.21 30.086 8.17466 31.79 6.376C33.494 4.53 34.9613 3.06267 36.192 1.974C37.4227 0.885333 38.322 0.340999 38.89 0.340999C39.2213 0.340999 39.387 0.601332 39.387 1.122C39.387 1.548 39.0793 2.16333 38.464 2.968C37.896 3.72533 37.1387 4.57733 36.192 5.524C35.2927 6.42333 34.3697 7.32267 33.423 8.222C32.4763 9.12133 31.648 9.90233 30.938 10.565C30.228 11.1803 29.7547 11.6063 29.518 11.843C27.3407 14.2097 25.1397 16.7893 22.915 19.582C20.7377 22.3747 18.6787 25.1673 16.738 27.96C14.7973 30.7527 13.117 33.3797 11.697 35.841C10.277 38.255 9.283 40.2903 8.715 41.947C8.573 42.3257 8.218 42.7753 7.65 43.296C7.082 43.7693 6.46667 44.1717 5.804 44.503C5.14133 44.8343 4.57333 45 4.1 45ZM27.8096 44.361C24.9696 44.361 23.5496 42.9647 23.5496 40.172C23.5496 39.0833 23.8336 37.829 24.4016 36.409C25.0169 34.9417 25.8216 33.4743 26.8156 32.007C27.8096 30.5397 28.9219 29.1907 30.1526 27.96C31.3832 26.682 32.6376 25.6643 33.9156 24.907C35.2409 24.1023 36.4716 23.7 37.6076 23.7C37.9862 23.7 38.2466 23.7947 38.3886 23.984C38.5779 24.126 38.7199 24.3863 38.8146 24.765C38.9092 24.9543 38.9802 25.1673 39.0276 25.404C39.0749 25.6407 39.1459 25.8773 39.2406 26.114C39.4299 26.4453 39.5956 26.7767 39.7376 27.108C39.8796 27.4393 39.9506 27.7943 39.9506 28.173C39.9506 28.6463 39.8322 29.0723 39.5956 29.451C39.3589 29.7823 39.0749 30.09 38.7436 30.374C38.2702 30.8 37.5602 31.3443 36.6136 32.007C35.6669 32.6223 34.6256 33.2613 33.4896 33.924C32.4009 34.5393 31.3359 35.0837 30.2946 35.557C29.3006 36.0303 28.4959 36.3143 27.8806 36.409C27.4546 37.0717 27.0049 37.9 26.5316 38.894C26.1056 39.8407 25.8926 40.7163 25.8926 41.521C25.8926 41.947 25.9872 42.3257 26.1766 42.657C26.4132 42.9883 26.7682 43.154 27.2416 43.154C27.9989 43.154 28.9929 42.799 30.2236 42.089C31.5016 41.3317 32.8269 40.4323 34.1996 39.391C35.5722 38.3023 36.8266 37.261 37.9626 36.267C39.1459 35.2257 40.0216 34.421 40.5896 33.853L42.8616 31.439C43.1456 31.155 43.4532 31.013 43.7846 31.013C44.0686 31.013 44.2106 31.1313 44.2106 31.368C44.2106 31.652 43.8082 32.2437 43.0036 33.143C42.1989 33.995 41.2286 34.9653 40.0926 36.054C39.0039 37.0953 37.9862 38.0657 37.0396 38.965C36.0929 39.817 35.4776 40.3613 35.1936 40.598C34.1996 41.45 33.0636 42.302 31.7856 43.154C30.5076 43.9587 29.1822 44.361 27.8096 44.361ZM29.0876 34.563C29.5609 34.279 30.2709 33.8293 31.2176 33.214C32.2116 32.5987 33.2292 31.9123 34.2706 31.155C35.3119 30.3977 36.1876 29.6403 36.8976 28.883C37.6549 28.1257 38.0336 27.463 38.0336 26.895C38.0336 26.753 38.0099 26.6347 37.9626 26.54C37.9152 26.4927 37.8206 26.469 37.6786 26.469C37.0632 26.469 36.3296 26.8003 35.4776 27.463C34.6256 28.1257 33.7736 28.9303 32.9216 29.877C32.0696 30.7763 31.2886 31.6757 30.5786 32.575C29.9159 33.427 29.4189 34.0897 29.0876 34.563ZM33.9866 20.434C33.6552 20.434 33.4896 20.3157 33.4896 20.079C33.4896 19.9843 33.5369 19.8897 33.6316 19.795C33.7262 19.7003 33.7972 19.6293 33.8446 19.582C34.8859 18.7773 36.0929 17.949 37.4656 17.097C38.8856 16.245 40.0926 15.5113 41.0866 14.896C41.6546 14.5173 42.0806 14.2807 42.3646 14.186C42.6486 14.0913 42.8852 14.044 43.0746 14.044C43.3586 14.044 43.5952 14.257 43.7846 14.683C44.0212 15.0617 44.1396 15.3693 44.1396 15.606C44.1396 15.9373 44.0686 16.1977 43.9266 16.387C43.7846 16.5763 43.5952 16.7183 43.3586 16.813C43.0272 17.0023 42.3882 17.2863 41.4416 17.665C40.4949 18.0437 39.4772 18.446 38.3886 18.872C37.2999 19.298 36.3296 19.6767 35.4776 20.008C34.6256 20.292 34.1286 20.434 33.9866 20.434ZM51.7205 45.781C51.0105 45.781 50.1821 45.5443 49.2355 45.071C48.2888 44.5977 47.8155 43.9587 47.8155 43.154C47.8155 42.444 48.0758 41.5447 48.5965 40.456C49.1171 39.3673 49.7561 38.2077 50.5135 36.977C51.2708 35.7463 52.0518 34.563 52.8565 33.427C53.6611 32.2437 54.3475 31.2497 54.9155 30.445C55.5308 29.593 55.9095 29.025 56.0515 28.741C56.7141 27.8417 57.1165 27.2737 57.2585 27.037C57.4005 26.8003 57.4951 26.611 57.5425 26.469C57.1638 26.753 56.5721 27.2027 55.7675 27.818C54.9628 28.386 54.1581 28.9777 53.3535 29.593C52.5488 30.2083 51.9571 30.6817 51.5785 31.013C48.9278 33.3323 46.7031 35.557 44.9045 37.687C43.1531 39.7697 41.5201 41.9943 40.0055 44.361C39.9581 44.4083 39.8398 44.4557 39.6505 44.503C39.4611 44.503 39.3191 44.503 39.2245 44.503C38.9405 44.503 38.5145 44.432 37.9465 44.29C37.4258 44.148 37.2128 43.8403 37.3075 43.367C37.5915 42.657 37.9701 41.8997 38.4435 41.095C38.9168 40.2903 39.5795 39.2017 40.4315 37.829C41.2835 36.409 42.3958 34.421 43.7685 31.865C44.1945 31.0603 44.9045 29.735 45.8985 27.889C46.9398 26.043 48.1941 23.9367 49.6615 21.57C51.1761 19.2033 52.8565 16.8603 54.7025 14.541C56.5958 12.1743 58.6311 10.068 60.8085 8.222C62.9858 6.376 65.2578 5.05066 67.6245 4.246C68.2398 4.00933 68.7841 3.891 69.2575 3.891C70.1568 3.891 70.7721 4.19866 71.1035 4.814C71.4821 5.382 71.9791 5.85533 72.5945 6.234C72.9731 6.47067 73.1625 6.84933 73.1625 7.37C73.1625 8.12733 72.5235 9.16867 71.2455 10.494C70.0148 11.772 68.4291 13.192 66.4885 14.754C64.5478 16.2687 62.5125 17.7833 60.3825 19.298C58.2525 20.8127 56.2408 22.209 54.3475 23.487C52.5015 24.765 51.0815 25.759 50.0875 26.469C49.8981 26.8477 49.5195 27.463 48.9515 28.315C48.4308 29.1197 47.8628 29.9953 47.2475 30.942C46.6321 31.8887 46.0641 32.7643 45.5435 33.569C45.0228 34.3737 44.6915 34.9417 44.5495 35.273C45.8748 34.0423 47.2711 32.7407 48.7385 31.368C50.2531 29.9953 51.7205 28.67 53.1405 27.392C54.6078 26.114 55.8858 25.0253 56.9745 24.126C57.2111 23.9367 57.4951 23.8183 57.8265 23.771C58.2051 23.7237 58.5128 23.7 58.7495 23.7C59.4121 23.7 60.1931 23.984 61.0925 24.552C61.9918 25.12 62.4415 25.8063 62.4415 26.611C62.4415 27.1317 62.1575 27.6523 61.5895 28.173C60.1695 29.451 58.7258 30.942 57.2585 32.646C55.7911 34.3027 54.4658 36.054 53.2825 37.9C52.9511 38.468 52.4778 39.2963 51.8625 40.385C51.2945 41.4737 51.0105 42.3493 51.0105 43.012C51.0105 43.4853 51.1525 43.722 51.4365 43.722C52.0045 43.722 52.7855 43.4143 53.7795 42.799C54.8208 42.1837 55.9331 41.4027 57.1165 40.456C58.3471 39.462 59.5541 38.4443 60.7375 37.403C61.9681 36.3617 63.0568 35.3913 64.0035 34.492C64.9501 33.5927 65.6365 32.9063 66.0625 32.433C66.3465 32.149 66.5831 32.007 66.7725 32.007C67.0565 32.007 67.1985 32.149 67.1985 32.433C67.1985 32.575 67.1038 32.788 66.9145 33.072C66.2991 33.8767 65.3998 34.8943 64.2165 36.125C63.0331 37.3083 61.7315 38.539 60.3115 39.817C58.8915 41.0477 57.5188 42.1837 56.1935 43.225C54.9155 44.219 53.8505 44.9763 52.9985 45.497C52.6671 45.6863 52.2411 45.781 51.7205 45.781ZM51.5785 23.7C51.9571 23.416 52.5961 22.9663 53.4955 22.351C54.4421 21.6883 55.4835 20.9547 56.6195 20.15C57.8028 19.298 58.9625 18.4697 60.0985 17.665C61.2345 16.813 62.1811 16.0557 62.9385 15.393C64.4531 14.0677 65.7075 12.979 66.7015 12.127C67.7428 11.275 68.6421 10.281 69.3995 9.145C69.5888 8.90833 69.7071 8.69533 69.7545 8.506C69.8018 8.31667 69.8255 8.151 69.8255 8.009C69.8255 7.725 69.6835 7.512 69.3995 7.37C69.1628 7.228 68.8551 7.157 68.4765 7.157C67.7665 7.157 66.8435 7.53566 65.7075 8.293C64.5715 9.05033 63.3408 10.068 62.0155 11.346C60.6901 12.5767 59.3648 13.9257 58.0395 15.393C56.7141 16.8603 55.4835 18.3277 54.3475 19.795C53.2115 21.215 52.2885 22.5167 51.5785 23.7ZM79.543 18.233C78.4544 18.233 77.91 17.8307 77.91 17.026C77.91 16.458 78.2177 15.8427 78.833 15.18C79.4484 14.5173 80.3477 14.044 81.531 13.76C82.241 13.5707 82.809 13.476 83.235 13.476C83.7084 13.4287 84.158 13.334 84.584 13.192C84.3947 14.0913 83.9924 15.0617 83.377 16.103C82.809 17.1443 82.0517 17.7833 81.105 18.02C80.6317 18.162 80.111 18.233 79.543 18.233ZM68.183 46.491C67.4257 46.491 66.7157 46.1833 66.053 45.568C65.4377 44.9527 65.059 44.29 64.917 43.58C65.059 42.6807 65.3667 41.592 65.84 40.314C66.3607 38.9887 66.9524 37.616 67.615 36.196C68.2777 34.776 68.9404 33.4507 69.603 32.22C70.2657 30.942 70.8337 29.9243 71.307 29.167C70.4077 29.9717 69.4374 30.871 68.396 31.865C67.402 32.859 66.4554 33.782 65.556 34.634C65.5087 34.6813 65.3904 34.776 65.201 34.918C65.059 35.06 64.917 35.131 64.775 35.131C64.4437 35.131 64.278 34.989 64.278 34.705C64.278 34.4683 64.3727 34.2553 64.562 34.066C65.84 32.646 67.1654 31.226 68.538 29.806C69.958 28.386 71.3307 26.9187 72.656 25.404C73.082 24.8833 73.437 24.481 73.721 24.197C74.0524 23.8657 74.5494 23.7 75.212 23.7C75.496 23.7 75.922 23.771 76.49 23.913C77.1054 24.0077 77.6024 24.197 77.981 24.481C78.407 24.765 78.478 25.12 78.194 25.546C77.8627 26.0667 77.2947 26.9187 76.49 28.102C75.6854 29.2853 74.7624 30.6343 73.721 32.149C72.727 33.6637 71.733 35.202 70.739 36.764C69.7924 38.2787 69.0114 39.6513 68.396 40.882C67.7807 42.1127 67.473 43.0357 67.473 43.651C67.473 43.935 67.5677 44.077 67.757 44.077C68.041 44.077 68.5144 43.8167 69.177 43.296C69.887 42.7753 70.5734 42.231 71.236 41.663C71.946 41.0477 72.4194 40.6453 72.656 40.456C74.0287 39.2727 75.3777 38.0657 76.703 36.835C78.0284 35.557 79.2827 34.2317 80.466 32.859C80.5607 32.7643 80.679 32.6223 80.821 32.433C81.0104 32.2437 81.1997 32.149 81.389 32.149C81.6257 32.149 81.744 32.291 81.744 32.575C81.744 32.9063 81.6257 33.2377 81.389 33.569C80.7737 34.3263 80.0874 35.0837 79.33 35.841C78.5727 36.551 77.8627 37.261 77.2 37.971C75.9694 39.2017 74.7624 40.4323 73.579 41.663C72.443 42.8463 71.307 44.077 70.171 45.355C69.9344 45.639 69.6267 45.8993 69.248 46.136C68.9167 46.3727 68.5617 46.491 68.183 46.491ZM90.5469 15.393C90.4996 15.3457 90.4759 15.2273 90.4759 15.038C90.4759 14.8013 90.7363 14.399 91.2569 13.831C91.8249 13.263 92.4639 12.624 93.1739 11.914C93.8839 11.204 94.4993 10.494 95.0199 9.784C95.5879 9.02667 95.8956 8.364 95.9429 7.796V7.654C95.9429 7.46466 95.8956 7.299 95.8009 7.157C95.7063 7.015 95.6589 6.82567 95.6589 6.589C95.6589 6.11567 95.8483 5.595 96.2269 5.027C96.6056 4.459 97.0553 3.98566 97.5759 3.607C98.0966 3.181 98.5226 2.968 98.8539 2.968C99.4219 2.968 99.7059 3.44133 99.7059 4.388C99.7059 4.48266 99.7059 4.601 99.7059 4.743C99.7059 4.885 99.6823 5.05067 99.6349 5.24C99.2563 6.84933 98.4753 8.38766 97.2919 9.855C96.1559 11.275 94.9489 12.482 93.6709 13.476C92.3929 14.47 91.3516 15.109 90.5469 15.393ZM93.5029 46.207C93.0769 46.207 92.7929 46.1123 92.6509 45.923C92.5089 45.781 92.3905 45.5207 92.2959 45.142C92.2485 44.9527 92.2249 44.787 92.2249 44.645C92.2249 44.4557 92.2249 44.29 92.2249 44.148C92.2249 43.4853 92.3669 42.9647 92.6509 42.586C92.9349 42.2073 93.5265 42.0417 94.4259 42.089C94.4732 40.4797 94.9702 38.397 95.9169 35.841C96.8635 33.2377 98.1179 30.3977 99.6799 27.321C101.289 24.2443 103.088 21.1913 105.076 18.162C107.064 15.0853 109.099 12.269 111.182 9.713C113.312 7.157 115.371 5.12167 117.359 3.607C119.347 2.045 121.146 1.264 122.755 1.264C123.37 1.264 124.128 1.52433 125.027 2.045C125.926 2.51833 126.731 3.11 127.441 3.82C128.198 4.53 128.601 5.21633 128.648 5.879C128.648 5.92633 128.648 5.97367 128.648 6.021C128.695 6.021 128.719 6.06833 128.719 6.163C128.719 6.49433 128.601 6.66 128.364 6.66C127.749 6.32866 127.323 6.021 127.086 5.737C126.849 5.453 126.281 5.311 125.382 5.311C123.82 5.311 122.045 5.99733 120.057 7.37C118.116 8.69533 116.081 10.494 113.951 12.766C111.868 14.9907 109.809 17.452 107.774 20.15C105.786 22.848 103.964 25.5697 102.307 28.315C100.65 31.013 99.3012 33.5453 98.2599 35.912C97.2185 38.2313 96.6032 40.1247 96.4139 41.592C99.8692 41.0713 103.372 40.74 106.922 40.598C110.472 40.4087 113.998 40.314 117.501 40.314C120.01 40.314 121.95 40.4323 123.323 40.669C124.696 40.8583 125.642 41.1187 126.163 41.45C126.731 41.7813 127.015 42.089 127.015 42.373C127.015 42.8937 126.139 43.154 124.388 43.154C123.583 43.154 122.589 43.1303 121.406 43.083C120.27 42.9883 119.087 42.941 117.856 42.941C115.821 42.941 114.093 42.9883 112.673 43.083C111.253 43.1303 109.786 43.2487 108.271 43.438C106.756 43.6273 104.816 43.9113 102.449 44.29C102.07 44.3373 101.408 44.4793 100.461 44.716C99.5615 44.9053 98.5912 45.1183 97.5499 45.355C96.5559 45.5917 95.6565 45.781 94.8519 45.923C94.0945 46.1123 93.6449 46.207 93.5029 46.207ZM134.374 45.781C133.001 45.781 131.984 45.2367 131.321 44.148C130.658 43.012 130.327 41.8523 130.327 40.669C130.327 39.0597 130.753 37.332 131.605 35.486C132.457 33.5927 133.475 31.794 134.658 30.09C135.889 28.386 136.977 26.9897 137.924 25.901C138.161 25.617 138.468 25.475 138.847 25.475C139.273 25.475 139.699 25.6407 140.125 25.972C141.119 25.262 142.255 24.623 143.533 24.055C144.858 23.487 146.136 23.203 147.367 23.203C149.497 23.203 150.562 24.2917 150.562 26.469C150.562 28.5517 150.041 30.4687 149 32.22C148.006 33.9713 146.894 35.6753 145.663 37.332C145.332 37.758 145 38.1603 144.669 38.539C144.385 38.9177 144.054 39.2963 143.675 39.675C145.758 39.107 147.58 38.1603 149.142 36.835C150.704 35.5097 152.242 34.137 153.757 32.717C153.946 32.5277 154.112 32.3857 154.254 32.291C154.443 32.149 154.68 32.078 154.964 32.078C155.201 32.078 155.319 32.2437 155.319 32.575C155.319 32.6223 155.248 32.7407 155.106 32.93C154.964 33.1193 154.869 33.2613 154.822 33.356C153.26 35.2493 151.319 37.0243 149 38.681C146.728 40.2903 144.338 41.2843 141.829 41.663C140.93 42.5623 139.794 43.4853 138.421 44.432C137.048 45.3313 135.699 45.781 134.374 45.781ZM139.912 40.172C140.101 40.172 140.267 40.172 140.409 40.172C140.598 40.172 140.788 40.1483 140.977 40.101C141.924 38.965 142.894 37.616 143.888 36.054C144.929 34.492 145.805 32.8827 146.515 31.226C147.225 29.522 147.58 27.9837 147.58 26.611C147.58 25.759 147.178 25.333 146.373 25.333C145.568 25.333 144.645 25.5697 143.604 26.043C142.563 26.5163 141.687 27.0133 140.977 27.534V27.747C140.977 28.2203 140.598 28.9067 139.841 29.806C139.131 30.658 138.35 31.5337 137.498 32.433C136.693 33.3323 136.102 34.0897 135.723 34.705C135.581 36.267 135.889 37.5687 136.646 38.61C137.403 39.6513 138.492 40.172 139.912 40.172ZM134.445 44.574C135.344 44.574 136.22 44.2427 137.072 43.58C137.971 42.9173 138.729 42.302 139.344 41.734C138.208 41.6393 137.167 41.2607 136.22 40.598C135.321 39.888 134.492 39.107 133.735 38.255C133.593 38.539 133.404 39.0833 133.167 39.888C132.93 40.6927 132.812 41.4973 132.812 42.302C132.812 42.9173 132.93 43.4617 133.167 43.935C133.404 44.361 133.83 44.574 134.445 44.574ZM155.459 45.994C153.897 45.994 152.642 45.4733 151.696 44.432C150.796 43.3907 150.347 42.0653 150.347 40.456C150.347 38.9413 150.82 37.2847 151.767 35.486C152.761 33.6873 154.015 31.936 155.53 30.232C157.092 28.528 158.701 27.037 160.358 25.759C162.014 24.481 163.505 23.6053 164.831 23.132C165.446 22.8953 166.014 22.777 166.535 22.777C167.15 22.777 167.552 22.919 167.742 23.203C167.931 23.487 168.073 23.7947 168.168 24.126C168.31 24.4573 168.523 24.7177 168.807 24.907C169.327 25.191 169.588 25.688 169.588 26.398C169.588 26.9187 169.446 27.5577 169.162 28.315C168.925 29.025 168.57 29.664 168.097 30.232C167.623 30.7527 167.055 31.013 166.393 31.013C165.777 31.013 165.47 30.7527 165.47 30.232C165.47 29.9007 165.635 29.5457 165.967 29.167C166.298 28.7883 166.629 28.386 166.961 27.96C167.292 27.4867 167.458 27.037 167.458 26.611C167.458 26.185 167.245 25.972 166.819 25.972C166.014 25.972 165.02 26.398 163.837 27.25C162.653 28.0547 161.446 29.1197 160.216 30.445C158.985 31.7703 157.825 33.1903 156.737 34.705C155.648 36.1723 154.772 37.5687 154.11 38.894C153.447 40.2193 153.116 41.308 153.116 42.16C153.116 42.7753 153.258 43.296 153.542 43.722C153.873 44.1007 154.346 44.29 154.962 44.29C155.956 44.29 157.068 44.006 158.299 43.438C159.529 42.87 160.689 42.1837 161.778 41.379C162.914 40.5743 163.837 39.8643 164.547 39.249C165.872 38.0657 167.15 36.8823 168.381 35.699C169.659 34.4683 170.913 33.2377 172.144 32.007C172.286 31.865 172.451 31.794 172.641 31.794C173.067 31.794 173.28 31.9833 173.28 32.362C173.28 32.5513 172.901 33.072 172.144 33.924C171.386 34.7287 170.487 35.6517 169.446 36.693C168.404 37.7343 167.434 38.681 166.535 39.533C165.635 40.385 165.044 40.9293 164.76 41.166C164.002 41.8287 163.079 42.5387 161.991 43.296C160.949 44.0533 159.861 44.6923 158.725 45.213C157.589 45.7337 156.5 45.994 155.459 45.994Z" fill="black"/>
</svg>
